<?xml version="1.0" ?><!DOCTYPE svg  PUBLIC '-//W3C//DTD SVG 1.0//EN'  'http://www.w3.org/TR/2001/REC-SVG-20010904/DTD/svg10.dtd'><svg enable-background="new 0 0 200 200" height="200px" id="Layer_1" version="1.0" viewBox="0 0 200 200" width="200px" xml:space="preserve" xmlns="http://www.w3.org/2000/svg" xmlns:xlink="http://www.w3.org/1999/xlink"><g id="New_Symbol"/><g id="New_Symbol_1_"/><g id="New_Symbol_1"/><g id="New_Symbol_9_2_"/><g id="New_Symbol_7"/><g id="New_Symbol_9_1_"/><g id="New_Symbol_9"/><g id="Nuevo_símbolo"/><g id="New_Symbol_10"/><g id="New_Symbol_12"/><g id="New_Symbol_14"/><g id="New_Symbol_15"/><g id="New_Symbol_16"/><g id="New_Symbol_17_1_"/><g id="New_Symbol_18"/><g id="New_Symbol_19"/><g id="New_Symbol_17"/><g><g><g><path d="M170.6,183.1c-0.7,0-1.1,0-1.1,0l-57.3,0l-1.1-15.3c0-2.3,0.1-3.8,1.5-4.4c0.7-0.3,1.6-0.2,2.9,0c1,0.2,2.3,0.4,4.1,0.4     c7.6,0,13.2-7.7,13.2-14.6c0-6.6-5.9-14.7-13.2-14.7c-1.8,0-3.1,0.2-4.1,0.4c-1.3,0.2-2.1,0.3-2.9,0c-1.4-0.6-1.5-2-1.5-4.3     l1.1-15.4H132c3.4,0,4.3-0.1,4.9-0.6c0.2-0.2,0.2-0.4-0.4-2c-0.5-1.3-1.2-3.2-1.2-5.6c0-5.9,4.8-10.8,10.8-10.8     c5.9,0,10.8,4.8,10.8,10.8c0,2.4-0.7,4.3-1.2,5.6c-0.6,1.6-0.6,1.8-0.4,2c0.6,0.5,1.5,0.6,5,0.6h19.9l0,58.3     c0,0.4,0.3,5.2-2.1,7.7C176.3,182.7,173,183.1,170.6,183.1z M114.5,180.6h55.1c0.1,0,0.5,0,1,0c2.7,0,4.8-0.5,5.7-1.4     c1.4-1.4,1.4-4.6,1.4-5.8l0-55.9h-17.4c-3.7,0-5.2-0.1-6.6-1.2c-1.7-1.4-1-3.2-0.4-4.8c0.5-1.2,1.1-2.8,1.1-4.7     c0-4.6-3.7-8.3-8.3-8.3c-4.5,0-8.3,3.7-8.3,8.3c0,2,0.6,3.4,1.1,4.7c0.6,1.6,1.3,3.4-0.4,4.8c-1.3,1.1-2.8,1.2-6.6,1.2h-17.5     l-0.9,13c0,1.2,0.1,1.7,0.1,1.9c0.3,0,0.7-0.1,1.3-0.2c1.1-0.2,2.5-0.4,4.5-0.4c8.8,0,15.7,9.2,15.7,17.2     c0,8.1-6.7,17.1-15.7,17.1c-2,0-3.5-0.2-4.5-0.4c-0.6-0.1-1.1-0.2-1.3-0.2c0,0.2-0.1,0.8-0.1,2L114.5,180.6z"/></g></g><g><g><path d="M164.7,109.8L164.7,109.8c-2.3,0-3.7-0.1-4.3-1.5c-0.4-0.8-0.2-1.7,0-2.9c0.2-1,0.4-2.3,0.4-4.1     c0-7.5-7.7-13.2-14.6-13.2c-6.6,0-14.7,5.9-14.7,13.2c0,1.8,0.2,3.1,0.4,4.1c0.2,1.1,0.3,2,0,2.9c-0.6,1.4-2,1.5-4.3,1.5     l-15.4-1.1V88.9c0-3.4-0.1-4.3-0.6-4.9c-0.1-0.2-0.2-0.2-0.3-0.2c-0.4,0-1,0.3-1.7,0.5c-1.3,0.5-3.2,1.2-5.6,1.2     c-5.9,0-10.8-4.8-10.8-10.8c0-5.9,4.8-10.8,10.8-10.8c2.4,0,4.3,0.7,5.6,1.2c0.7,0.3,1.3,0.5,1.7,0.5c0.1,0,0.2,0,0.3-0.2     c0.5-0.6,0.6-1.5,0.6-4.9V40.8l58.3,0c0,0,0.4,0,0.9,0c1.8,0,5,0.3,6.8,2.1c2.4,2.4,2.1,7.9,2.1,8.5l0,57.3L164.7,109.8z      M114.6,106.4l13,0.9c1.1,0,1.7-0.1,1.9-0.1c0-0.3-0.1-0.9-0.2-1.3c-0.2-1.1-0.4-2.5-0.4-4.5c0-8.8,9.2-15.7,17.2-15.7     c8.1,0,17.1,6.7,17.1,15.7c0,2-0.2,3.5-0.4,4.5c-0.1,0.5-0.2,1.1-0.2,1.3c0.2,0,0.8,0.1,2,0.1l13-0.9V51.3c0.1-2-0.1-5.4-1.3-6.6     c-0.9-0.9-2.7-1.4-5-1.4c-0.4,0-0.7,0-0.7,0l-55.9,0v17.4c0,3.7-0.1,5.2-1.2,6.6c-0.6,0.7-1.3,1.1-2.2,1.1     c-0.8,0-1.7-0.3-2.6-0.7c-1.2-0.5-2.8-1.1-4.7-1.1c-4.6,0-8.3,3.7-8.3,8.3c0,4.5,3.7,8.2,8.3,8.2c2,0,3.4-0.6,4.7-1.1     c1-0.4,1.8-0.7,2.6-0.7c0.9,0,1.6,0.4,2.2,1.1c1.1,1.3,1.2,2.8,1.2,6.6V106.4z"/></g></g><g><g><path d="M49.2,108.8C49.2,108.8,49.2,108.8,49.2,108.8c-1.2,0-2.4-0.2-3.6-0.6c-5.6-2-8.5-8.1-6.6-13.7c0.8-2.3,2.1-3.8,3-4.9     c1.1-1.3,1.2-1.5,1-1.8c-0.4-0.7-1.2-1.1-4.5-2.2l-18.8-6.6l19.4-55c0.1-0.4,1.4-5,4.5-6.5c0.7-0.3,1.6-0.5,2.6-0.5     c2.8,0,6,1.3,6.1,1.4l54.1,19.1l-4.1,14.8c-0.8,2.2-1.3,3.5-2.9,3.6l-0.2,0c-0.8,0-1.6-0.4-2.5-0.9c-0.9-0.5-2-1.1-3.8-1.7     c-1.2-0.4-2.4-0.6-3.7-0.6c-5.7,0-11.6,4.4-13.6,10c-1.1,3.2-1,7.1,0.4,10.7c1.4,3.7,4,6.4,7.2,7.5c1.7,0.6,3,0.8,4,1     c1.1,0.2,2,0.4,2.7,1c1.1,1,0.7,2.4,0,4.5l-6.1,14.2l-18.7-6.6c-2.1-0.8-3.5-1.2-4.2-1.2c-0.2,0-0.4,0-0.6,0.1     C60,94,60,94.2,60,95.9c0,1.4,0.1,3.4-0.7,5.7C57.8,105.9,53.7,108.8,49.2,108.8z M23,77.4l16.4,5.8c3.5,1.2,4.9,1.8,5.8,3.3     c1.1,1.9-0.1,3.4-1.3,4.7c-0.9,1-1.9,2.3-2.6,4.1c-1.5,4.3,0.7,9,5,10.5c0.9,0.3,1.8,0.5,2.7,0.5c3.5,0,6.6-2.2,7.8-5.5     c0.7-1.9,0.6-3.4,0.6-4.8c0-1.7-0.1-3.6,1.9-4.4c1.6-0.6,2.9-0.3,6.6,1l16.5,5.8l5.2-12c0.4-1.1,0.5-1.6,0.5-1.8     c-0.3-0.1-0.8-0.2-1.3-0.3c-1.1-0.2-2.5-0.4-4.4-1.1c-3.9-1.4-7-4.6-8.7-9c-1.6-4.1-1.7-8.7-0.4-12.4c2.4-6.7,9.2-11.7,16-11.7     c1.5,0,3.1,0.3,4.5,0.8c1.9,0.7,3.2,1.4,4.1,1.9c0.4,0.2,0.9,0.5,1.2,0.6c0.1-0.2,0.4-0.7,0.8-1.9l3.5-12.5l-52-18.3     c-0.1,0-2.9-1.2-5.2-1.2c-0.6,0-1.2,0.1-1.5,0.3c-1.7,0.8-2.9,3.9-3.2,5L23,77.4z"/></g></g><g><g><path d="M46.8,183.1c-1.8,0-5-0.3-6.8-2.1c-2.4-2.4-2.1-7.9-2.1-8.5l0-57.3l15.3-1.1c2.3,0,3.8,0.1,4.4,1.5     c0.4,0.8,0.2,1.7,0,2.9c-0.2,1-0.4,2.3-0.4,4.1c0,7.5,7.7,13.2,14.6,13.2c6.6,0,14.7-5.9,14.7-13.2c0-1.8-0.2-3.1-0.4-4.1     c-0.2-1.1-0.3-2,0-2.9c0.6-1.4,2-1.5,4.3-1.5l15.4,1.1V135c0,3.4,0.1,4.3,0.6,4.9c0.1,0.2,0.2,0.2,0.3,0.2c0.4,0,1-0.3,1.7-0.5     c1.3-0.5,3.2-1.2,5.6-1.2c5.9,0,10.8,4.8,10.8,10.8c0,5.9-4.8,10.8-10.8,10.8c-2.4,0-4.3-0.7-5.6-1.2c-0.7-0.3-1.3-0.5-1.7-0.5     c-0.1,0-0.2,0-0.3,0.2c-0.5,0.6-0.6,1.5-0.6,4.9v19.9l-58.3,0C47.6,183.1,47.3,183.1,46.8,183.1z M40.4,117.5v55.1     c-0.1,2,0.1,5.4,1.3,6.6c0.9,0.9,2.7,1.4,5,1.4c0.4,0,0.7,0,0.7,0l55.9,0v-17.4c0-3.7,0.1-5.2,1.2-6.6c0.6-0.7,1.3-1.1,2.2-1.1     c0.8,0,1.7,0.3,2.6,0.7c1.2,0.5,2.8,1.1,4.7,1.1c4.6,0,8.3-3.7,8.3-8.3c0-4.5-3.7-8.2-8.3-8.2c-2,0-3.4,0.6-4.7,1.1     c-1,0.4-1.8,0.7-2.6,0.7c-0.9,0-1.6-0.4-2.2-1.1c-1.1-1.3-1.2-2.8-1.2-6.6v-17.5l-13-0.9c-1.1,0-1.7,0.1-1.9,0.1     c0,0.3,0.1,0.9,0.2,1.3c0.2,1.1,0.4,2.5,0.4,4.5c0,8.8-9.2,15.7-17.2,15.7c-8.1,0-17.1-6.7-17.1-15.7c0-2,0.2-3.5,0.4-4.5     c0.1-0.5,0.2-1.1,0.2-1.3c-0.2,0-0.8-0.1-2-0.1L40.4,117.5z"/></g></g></g></svg>